<svg xmlns="http://www.w3.org/2000/svg" width="500" height="500" viewBox="0 0 500 500" version="1.1">
	<path d="M 227.500 42.665 C 195.272 45.317, 164.824 51.930, 133.671 63.044 L 121.842 67.264 122.282 128.882 C 122.696 186.948, 122.844 191.076, 124.846 200.500 C 131.053 229.723, 142.786 251.301, 165 274.348 C 178.174 288.015, 192.078 299.496, 210 311.504 C 223.046 320.245, 247.449 334, 249.912 334 C 252.311 334, 276.772 320.240, 290 311.449 C 307.575 299.769, 321.637 288.184, 335 274.375 C 358.100 250.505, 370.665 226.547, 375.593 196.976 C 377.080 188.056, 377.394 177.760, 377.711 127.653 C 377.977 85.599, 377.767 68.425, 376.976 67.471 C 375.309 65.462, 338.369 53.607, 323 50.148 C 297.666 44.448, 273.976 41.930, 248 42.178 C 238.925 42.265, 229.700 42.484, 227.500 42.665 M 212.500 56.541 C 188.671 59.408, 160.669 65.754, 143.293 72.225 L 134.500 75.500 134.236 106.190 L 133.971 136.880 142.736 141.597 C 147.556 144.191, 159.026 150.480, 168.226 155.571 L 184.951 164.828 189.726 160.370 C 192.351 157.918, 199.488 152.155, 205.584 147.565 C 222 135.202, 225.323 128.907, 221.914 116.630 L 220.840 112.760 214.797 113.444 L 208.754 114.127 209.536 110.314 C 209.967 108.216, 210.389 101.772, 210.475 95.993 C 210.607 87.054, 211.012 84.654, 213.185 79.907 C 216.289 73.126, 221.329 67.908, 228.283 64.273 C 233.031 61.792, 234.490 61.544, 244.500 61.523 C 258.546 61.494, 264.360 63.417, 271.636 70.500 C 275.461 74.224, 277.358 77.131, 279.071 81.892 C 280.864 86.872, 282.205 88.859, 285.148 90.892 C 287.225 92.326, 288.941 93.776, 288.962 94.114 C 288.983 94.452, 286.863 95.528, 284.250 96.505 C 276.630 99.354, 276.631 99.350, 280.661 107.043 C 284.331 114.049, 284.482 116.800, 281.243 117.647 C 279.944 117.986, 279.452 119.256, 279.323 122.610 C 279.227 125.089, 278.652 127.715, 278.044 128.446 C 277.382 129.244, 277.197 131.377, 277.580 133.778 C 278.421 139.032, 275.411 142.532, 270.840 141.618 L 267.889 141.028 271.613 145.572 C 273.661 148.071, 277.848 151.760, 280.918 153.768 C 283.988 155.777, 289.826 160.714, 293.891 164.738 L 301.282 172.056 316.391 163.886 C 324.701 159.392, 339.269 151.457, 348.764 146.251 L 366.029 136.787 365.764 106.167 L 365.500 75.546 352.938 71.322 C 330.192 63.674, 311.301 59.526, 285.506 56.516 C 269.416 54.639, 228.191 54.652, 212.500 56.541 M 136.613 200.250 C 137.403 203.688, 138.720 208.844, 139.540 211.708 C 148.873 244.302, 178.663 278.060, 222.904 306.175 C 227.643 309.186, 229.103 309.758, 228.519 308.372 C 224.361 298.501, 222.785 288.241, 225.131 286.323 C 226.204 285.446, 236.209 282, 237.682 282 C 237.857 282, 238 282.658, 238 283.461 C 238 284.318, 236.361 285.364, 234.042 285.989 C 224.487 288.562, 229.705 291.190, 245.488 291.755 C 261.648 292.333, 270.592 289.392, 261.735 286.411 C 259.956 285.813, 258.357 284.588, 258.182 283.689 C 257.893 282.204, 258.292 282.183, 262.552 283.466 C 265.130 284.241, 268.227 285.804, 269.434 286.938 C 270.641 288.072, 272.543 289, 273.659 289 C 275.816 289, 278.269 291.302, 279.352 294.341 C 280.618 297.897, 277.215 302.607, 270.978 305.931 C 267.737 307.658, 264.135 310.406, 262.974 312.036 C 261.814 313.666, 261.135 315, 261.465 315 C 262.898 315, 283.386 302.088, 293 295.126 C 331.420 267.304, 353.179 239.428, 361.513 207.352 C 365.158 193.325, 365.130 193.218, 358.750 196.803 C 302.480 228.422, 298.160 231.076, 295.036 235.944 C 293.354 238.566, 291.108 241.497, 290.045 242.459 C 288.983 243.421, 287.830 245.499, 287.483 247.077 C 286.948 249.514, 282.974 253.974, 280.287 255.154 C 279.854 255.344, 278.708 257.212, 277.740 259.305 C 276.544 261.889, 274.860 263.578, 272.490 264.569 C 270.570 265.371, 269 266.491, 269 267.059 C 269 267.626, 267.895 269.195, 266.545 270.545 C 263.197 273.894, 257.546 273.860, 252.539 270.462 L 248.799 267.924 244.358 271.563 C 238.305 276.523, 233.509 277.141, 229.201 273.516 C 227.441 272.034, 226 269.962, 226 268.911 C 226 267.717, 225.305 267, 224.146 267 C 221.456 267, 217.057 262.536, 216.372 259.111 C 215.971 257.104, 215.025 255.972, 213.409 255.567 C 210.643 254.872, 208 250.326, 208 246.262 C 208 244.186, 206.678 242.122, 203.073 238.572 C 200.363 235.903, 197.892 232.706, 197.581 231.468 C 197.226 230.053, 194.321 227.544, 189.758 224.712 C 181.891 219.829, 136.368 194, 135.629 194 C 135.381 194, 135.824 196.813, 136.613 200.250 M 219.298 208.642 C 198.684 227.669, 198.153 228.810, 206.239 236.745 L 210.566 240.990 225.033 227.920 C 232.990 220.731, 240.965 213.411, 242.756 211.652 L 246.012 208.454 239.620 202.119 L 233.229 195.784 219.298 208.642 M 237.477 221.276 C 212.327 244.317, 212 244.651, 212 247.319 C 212 250.533, 215.567 253.302, 218.017 251.991 C 218.956 251.489, 224.302 246.968, 229.898 241.946 C 236.281 236.216, 240.618 233.023, 241.536 233.375 C 242.341 233.684, 243 234.392, 243 234.947 C 243 235.502, 238.070 240.314, 232.045 245.640 C 226.020 250.965, 220.835 255.988, 220.522 256.802 C 220.210 257.616, 220.650 259.343, 221.500 260.641 C 224.280 264.884, 227.072 263.703, 238.360 253.511 C 244.140 248.291, 249.150 243.566, 249.493 243.011 C 250.438 241.482, 254.201 241.774, 253.823 243.346 C 253.645 244.087, 248.213 249.511, 241.750 255.400 C 230.375 265.765, 228.664 268.264, 231.200 270.800 C 233.700 273.300, 237.592 272.085, 243.422 266.983 L 249.155 261.966 253.718 265.983 C 256.228 268.192, 258.914 270, 259.686 270 C 260.459 270, 262.254 268.837, 263.675 267.416 L 266.259 264.832 261.622 260.124 C 258.055 256.502, 257.257 255.143, 258.166 254.234 C 259.075 253.325, 260.449 254.082, 264.119 257.514 C 268.107 261.245, 269.267 261.838, 271.195 261.129 C 272.463 260.663, 273.926 259.088, 274.447 257.629 C 275.290 255.269, 274.909 254.483, 270.993 250.493 C 267.766 247.205, 266.888 245.712, 267.703 244.897 C 268.517 244.083, 270.037 244.915, 273.399 248.013 C 277.916 252.177, 278.023 252.215, 280.551 250.559 C 285.523 247.300, 283.943 244.868, 265.477 227.360 L 248.453 211.220 237.477 221.276 M 243.340 281.250 C 242.379 282.794, 242.246 289.999, 243.179 289.999 C 243.552 290, 244.563 289.294, 245.427 288.431 C 246.634 287.223, 246.750 286.401, 245.929 284.867 C 245.152 283.416, 245.186 282.480, 246.053 281.436 C 247.002 280.292, 246.927 280, 245.681 280 C 244.822 280, 243.768 280.563, 243.340 281.250 M 249.617 281.291 C 248.106 282.396, 248.028 282.967, 249.073 285.261 C 250.043 287.390, 250.033 288.255, 249.025 289.470 C 247.237 291.624, 249.303 291.385, 252.107 289.115 C 254.099 287.501, 254.243 286.997, 253.100 285.620 C 252.365 284.735, 252 283.108, 252.288 282.005 C 252.896 279.683, 252.105 279.472, 249.617 281.291 M 270.662 294.188 C 269.856 295.460, 268.876 298.034, 268.484 299.909 L 267.771 303.318 271.136 301.353 C 273.898 299.740, 274.500 298.786, 274.500 296.027 C 274.500 291.938, 272.650 291.052, 270.662 294.188 M 150.643 345.028 C 144.226 346.951, 141 352.311, 141 361.049 C 141 372.095, 145.355 377.347, 154.594 377.446 C 160.597 377.510, 164.626 375.624, 166.585 371.835 C 168.651 367.840, 168.357 367, 164.894 367 C 162.772 367, 161.165 367.792, 159.821 369.500 C 156.017 374.336, 149.770 371.621, 148.444 364.556 C 147.453 359.269, 148.717 354.368, 151.672 352.043 C 155.064 349.375, 156.601 349.466, 159.412 352.500 C 160.955 354.164, 162.800 355, 164.932 355 C 167.789 355, 168.061 354.757, 167.452 352.750 C 166.387 349.236, 162.984 346.090, 159.074 345.004 C 154.974 343.865, 154.520 343.866, 150.643 345.028 M 182.604 344.995 C 173.013 348.010, 169.084 361.928, 175.084 371.636 C 177.578 375.672, 184.417 378.519, 189.597 377.678 C 197.865 376.336, 201.993 370.783, 201.993 361 C 201.993 353.944, 200.024 349.371, 195.798 346.605 C 192.801 344.644, 186.260 343.845, 182.604 344.995 M 335.270 344.703 C 332.729 345.194, 328.997 349.473, 329.006 351.885 C 329.010 352.773, 329.657 354.736, 330.445 356.247 C 331.754 358.755, 331.711 359.085, 329.950 360.027 C 328.889 360.595, 327.313 362.429, 326.447 364.103 C 321.909 372.877, 332.178 380.877, 342.463 376.580 C 345.115 375.472, 346.680 375.280, 347.377 375.977 C 347.940 376.540, 350.423 377, 352.896 377 L 357.392 377 354.185 373.690 L 350.977 370.381 352.934 364.690 L 354.892 359 351.894 359 C 349.447 359, 348.699 359.564, 347.826 362.070 L 346.756 365.140 343.924 362.427 L 341.093 359.715 343.553 357.780 C 349.112 353.407, 349.041 347.751, 343.397 345.392 C 340.030 343.986, 339.303 343.924, 335.270 344.703 M 208 361 L 208 377 211.500 377 L 215 377 215 370.500 L 215 364 221.566 364 L 228.133 364 227.816 361.250 C 227.513 358.614, 227.240 358.488, 221.250 358.202 L 215 357.905 215 354.452 L 215 351 222 351 L 229 351 229 348 L 229 345 218.500 345 L 208 345 208 361 M 234 361 L 234 377 237.452 377 L 240.905 377 241.202 370.750 L 241.500 364.500 247.812 364.201 C 254.018 363.906, 254.118 363.856, 253.812 361.201 C 253.514 358.625, 253.210 358.486, 247.250 358.202 L 241 357.905 241 354.452 L 241 351 248 351 L 255 351 255 348 L 255 345 244.500 345 L 234 345 234 361 M 260 361 L 260 377 271.500 377 L 283 377 283 374 L 283 371 275 371 L 267 371 267 367.500 L 267 364 274 364 L 281 364 281 361 L 281 358 274 358 L 267 358 267 354.500 L 267 351 275 351 L 283 351 283 348 L 283 345 271.500 345 L 260 345 260 361 M 289 361 L 289 377 300 377 C 306.583 377, 311.050 376.598, 311.125 376 C 311.695 371.444, 311.798 371.511, 303.750 371.208 L 296 370.916 296 367.458 L 296 364 303 364 L 310 364 310 361 L 310 358 303 358 L 296 358 296 354.500 L 296 351 303.500 351 L 311 351 311 348 L 311 345 300 345 L 289 345 289 361 M 337.250 349.731 C 335.738 350.258, 335.582 354.624, 337.044 355.527 C 338.474 356.411, 341 354.149, 341 351.985 C 341 350.074, 339.261 349.029, 337.250 349.731 M 183.019 351.784 C 181.023 353.399, 180.540 354.856, 180.194 360.300 C 179.812 366.300, 179.997 367.088, 182.342 369.433 C 187.117 374.208, 193.201 371.778, 194.556 364.556 C 195.331 360.424, 194.510 355.065, 192.737 352.687 C 190.723 349.985, 185.805 349.528, 183.019 351.784 M 332.980 365.038 C 330.492 369.687, 334.634 373.721, 339.981 371.857 L 343.160 370.748 339.377 366.874 C 335.026 362.418, 334.468 362.258, 332.980 365.038 M 100 386.653 C 97.610 387.612, 93.931 391.268, 92.405 394.200 C 91.631 395.688, 91.002 399.731, 91.004 403.200 C 91.010 413.693, 95.845 419.231, 105 419.231 C 110.774 419.231, 114.259 417.334, 116.520 412.961 C 118.413 409.301, 117.779 408, 114.101 408 C 112.114 408, 111 408.705, 110.195 410.472 C 108.867 413.387, 105.029 414.621, 102.127 413.068 C 97.709 410.704, 97.031 397.969, 101.106 393.894 C 103.794 391.206, 107.613 391.479, 109.592 394.500 C 110.713 396.210, 112.141 397, 114.115 397 C 117.941 397, 117.972 394.119, 114.191 389.887 C 111.891 387.313, 110.486 386.680, 106.441 386.397 C 103.723 386.206, 100.825 386.321, 100 386.653 M 130.071 387.752 C 125.027 390.324, 122.916 393.832, 122.296 400.674 C 121.234 412.380, 126.927 419.414, 137.359 419.287 C 142.875 419.220, 146.449 417.085, 149.355 412.123 C 151.934 407.720, 151.936 398.426, 149.360 393.461 C 145.821 386.643, 137.231 384.100, 130.071 387.752 M 256.407 387.515 C 251.663 389.943, 248.999 395.563, 249.004 403.136 C 249.008 410.169, 251.012 414.651, 255.453 417.561 C 258.769 419.734, 267.193 419.759, 270.479 417.606 C 273.173 415.840, 276.397 410.452, 275.565 409.105 C 274.664 407.647, 269.585 409.211, 267.298 411.651 C 261.447 417.891, 254.458 410.031, 256.444 399.444 C 257.762 392.419, 264.322 389.510, 267.592 394.500 C 268.713 396.210, 270.141 397, 272.115 397 C 275.941 397, 275.972 394.119, 272.191 389.887 C 269.915 387.340, 268.443 386.666, 264.441 386.338 C 261.196 386.071, 258.438 386.476, 256.407 387.515 M 328.034 387.752 C 322.879 390.352, 320.498 395.178, 320.511 403 C 320.529 413.841, 325.445 419.227, 335.253 419.151 C 344.221 419.082, 349.490 412.919, 349.490 402.500 C 349.490 392.464, 343.815 386.003, 335 386.003 C 333.075 386.003, 329.940 386.790, 328.034 387.752 M 393 386.706 C 390.253 387.710, 387.111 391.218, 386.511 393.952 C 385.236 399.754, 388.968 403.851, 396.905 405.363 C 401.290 406.199, 403 407.669, 403 410.603 C 403 415.226, 394.011 414.760, 392.519 410.061 C 392.026 408.507, 391.021 408, 388.433 408 C 384.578 408, 384.320 408.765, 386.570 413.507 C 388.471 417.512, 392.579 419.403, 399.161 419.304 C 407.353 419.181, 411.857 414.383, 410.512 407.213 C 409.784 403.331, 406.073 400.697, 398.910 398.978 C 396.293 398.350, 393.885 397.142, 393.558 396.292 C 392.022 392.288, 399.934 390.140, 402 394 C 403.335 396.495, 409 396.847, 409 394.434 C 409 388.567, 399.914 384.179, 393 386.706 M 157 403 L 157 419 159.965 419 L 162.930 419 163.215 408.750 L 163.500 398.500 169.560 408.500 C 175.326 418.014, 175.799 418.515, 179.310 418.810 L 183 419.121 183 403.060 L 183 387 179.536 387 L 176.072 387 175.786 396.720 L 175.500 406.440 169.704 396.720 C 164.159 387.421, 163.758 387, 160.454 387 L 157 387 157 403 M 189 403 L 189 419 192.500 419 L 196 419 196.012 408.750 L 196.023 398.500 202.126 408.750 C 207.948 418.530, 208.383 419, 211.614 419 L 215 419 215 403 L 215 387 211.431 387 L 207.863 387 208.181 396.502 C 208.357 401.728, 208.275 405.987, 208 405.965 C 207.725 405.943, 205.025 401.676, 202 396.481 C 196.610 387.226, 196.425 387.037, 192.750 387.019 L 189 387 189 403 M 222 403 L 222 419 233.500 419 L 245 419 245 416 L 245 413 236.940 413 L 228.879 413 229.190 409.250 L 229.500 405.500 236.250 405.204 C 242.993 404.909, 243 404.906, 243 401.954 L 243 399 236 399 L 229 399 229 396 L 229 393 237 393 L 245 393 245 390 L 245 387 233.500 387 L 222 387 222 403 M 279 390 C 279 392.889, 279.167 393, 283.500 393 L 288 393 288 406 L 288 419 291.500 419 L 295 419 295 406 L 295 393 299.500 393 C 303.833 393, 304 392.889, 304 390 L 304 387 291.500 387 L 279 387 279 390 M 308 403 L 308 419 311.500 419 L 315 419 315 403 L 315 387 311.500 387 L 308 387 308 403 M 355 402.940 L 355 419 358 419 L 361 419 361 408.941 C 361 403.409, 361.387 399.121, 361.861 399.414 C 362.334 399.706, 365.280 404.233, 368.407 409.473 C 373.837 418.573, 374.247 419, 377.546 419 L 381 419 381 403 L 381 387 377.536 387 L 374.072 387 373.786 396.519 L 373.500 406.038 367.951 396.769 C 362.690 387.982, 362.209 387.484, 358.701 387.190 L 355 386.879 355 402.940 M 132.072 393.928 C 129.799 396.201, 128.595 403.280, 129.774 407.432 C 131.009 411.777, 135.282 414.639, 138.727 413.427 C 142.334 412.159, 143.967 408.672, 143.985 402.205 C 143.997 397.904, 143.539 396.448, 141.545 394.455 C 138.599 391.509, 134.708 391.292, 132.072 393.928 M 330.073 394.635 C 326.911 398.654, 327.127 408.218, 330.455 411.545 C 331.805 412.895, 333.850 414, 335 414 C 336.150 414, 338.195 412.895, 339.545 411.545 C 341.598 409.493, 342 408.122, 342 403.180 C 342 395.997, 339.497 392, 335 392 C 333.107 392, 331.447 392.888, 330.073 394.635" stroke="none" fill="#000000" fill-rule="evenodd"/>
</svg>